<?xml version="1.0" encoding="utf-8"?>
<!-- Generator: Adobe Illustrator 26.2.1, SVG Export Plug-In . SVG Version: 6.00 Build 0)  -->
<svg version="1.1" id="Capa_1" xmlns="http://www.w3.org/2000/svg" xmlns:xlink="http://www.w3.org/1999/xlink" x="0px" y="0px"
	 viewBox="0 0 512 512" style="enable-background:new 0 0 512 512;" xml:space="preserve">
<style type="text/css">
	.st0{fill:#FFFFFF;}
</style>
<g>
	<path class="st0" d="M512.4,257.2c0.2,5.3-0.6,10.5-2,15.6s-3.5,9.9-6.2,14.4c-2.7,4.5-6.2,8.6-9.9,12.2c-3.9,3.6-8.3,6.6-12.9,8.9
		c0.2,1.4,0.2,2.9,0.3,4.2c0.2,2.9,0.2,5.7,0,8.4c0,1.4-0.2,2.9-0.3,4.2c0,86.1-100.4,156.1-224.1,156.1s-224.1-70-224.1-156.1
		c-0.2-1.4-0.2-2.9-0.3-4.2c-0.2-2.9-0.2-5.7,0-8.4c0-1.4,0.2-2.9,0.3-4.2c-15-6.9-26.1-20-30.6-35.9s-1.7-32.9,7.5-46.6
		c9.2-13.7,23.9-22.5,40.3-24.5C66.7,199.6,83,205,95,216.2c11-7.5,22.5-14.1,34.6-20c12-5.9,24.3-10.7,37-14.7
		c12.6-4.1,25.7-7.1,38.8-9.2c13.1-2.1,26.4-3.3,39.7-3.5l28.4-133.4c0.3-1.5,0.9-3,1.8-4.4c0.9-1.4,2.1-2.4,3.3-3.3
		c1.4-0.9,2.9-1.5,4.4-1.8c1.5-0.3,3.2-0.3,4.7,0.2L381.7,45c9.5-16.4,29.4-23.3,47-16.5c17.6,6.8,27.6,25.4,23.7,43.9
		s-20.7,31.4-39.5,30.3c-18.9-0.9-34.3-15.5-36.2-34.3l-82.5-17l-24.9,120c13.1,0.3,26.3,1.5,39.2,3.6c26,4.4,51.1,12.3,74.8,23.9
		c11.9,5.7,23.1,12.3,34.1,19.7c7.8-7.5,17.6-12.6,28.2-14.6c10.7-2.1,21.6-1.1,31.7,3.2c10.1,4.1,18.6,11,24.9,19.8
		C508.3,235.9,511.9,246.4,512.4,257.2z M130.7,310.4c2,4.7,4.8,8.9,8.4,12.5c3.6,3.6,7.8,6.5,12.5,8.4c4.7,2,9.6,2.9,14.7,2.9
		c15.6,0,29.6-9.3,35.6-23.7s2.7-30.9-8.4-41.9c-11-11-27.5-14.3-41.9-8.4c-14.4,6-23.7,20-23.7,35.6
		C127.8,300.8,128.7,305.8,130.7,310.4z M350.9,402.8c2-2,3.2-4.5,3.2-7.4c0-2.7-1.1-5.4-3-7.4s-4.5-3.2-7.4-3.2
		c-2.7,0-5.4,1.1-7.7,2.7c-5.7,4.2-11.9,7.8-18.3,11c-6.5,3.2-13.1,5.7-19.8,7.7c-6.8,2-13.8,3.5-20.9,4.2
		c-7.1,0.8-14.3,1.1-21.3,0.6c-7.1,0.3-14.3,0-21.3-0.9c-7.1-0.9-14-2.4-20.7-4.4c-6.8-2.1-13.4-4.7-19.8-7.8
		c-6.3-3.2-12.5-6.9-18.2-11.1c-2-1.7-4.5-2.4-7.1-2.4c-2.6,0.2-5,1.2-6.9,3c-1.8,1.8-2.9,4.2-3,6.9c-0.2,2.6,0.8,5.1,2.4,7.1
		c6.8,5.1,14,9.6,21.5,13.5c7.5,3.9,15.3,7.1,23.4,9.6c8.1,2.6,16.4,4.4,24.8,5.4c8.4,1.1,16.8,1.5,25.4,1.1c8.4,0.3,17,0,25.4-1.1
		c16.8-2.3,33.1-7.4,48.2-15c7.5-3.9,14.7-8.4,21.5-13.5L350.9,402.8z M343.8,337.2c5.3,0,10.4-0.9,15.2-3c4.8-2,9.2-5,12.8-8.7
		c3.6-3.8,6.5-8.1,8.3-13.1c1.8-4.8,2.7-10.1,2.6-15.3c0-15.6-9.3-29.6-23.7-35.6c-14.4-6-30.9-2.7-41.9,8.4
		c-11,11-14.3,27.5-8.4,41.9c6,14.4,20,23.7,35.6,23.7L343.8,337.2z"/>
</g>
</svg>
