<?xml version="1.0" encoding="utf-8"?>
<!-- Generator: Adobe Illustrator 16.0.0, SVG Export Plug-In . SVG Version: 6.00 Build 0)  -->
<!DOCTYPE svg PUBLIC "-//W3C//DTD SVG 1.1//EN" "http://www.w3.org/Graphics/SVG/1.1/DTD/svg11.dtd">
<svg version="1.1" id="Capa_1" xmlns="http://www.w3.org/2000/svg" xmlns:xlink="http://www.w3.org/1999/xlink" x="0px" y="0px"
	 width="1024px" height="1024px" viewBox="0 0 1024 1024" enable-background="new 0 0 1024 1024" xml:space="preserve">
<path fill="#FDFEFF" d="M1024,194.496c-38.08,16.704-78.656,27.776-120.961,33.152c43.521-25.984,76.736-66.816,92.353-116.032
	c-40.576,24.192-85.376,41.28-133.12,50.816C823.743,121.408,768.831,96,708.928,96c-116.225,0-209.792,94.336-209.792,209.984
	c0,16.64,1.407,32.64,4.864,47.872c-174.528-8.512-328.96-92.16-432.704-219.584C53.184,165.696,42.56,201.664,42.56,240.384
	c0,72.704,37.44,137.152,93.248,174.464c-33.728-0.64-66.815-10.432-94.848-25.856c0,0.64,0,1.472,0,2.304
	c0,102.017,72.768,186.752,168.191,206.272c-17.088,4.672-35.712,6.912-55.04,6.912c-13.439,0-27.008-0.769-39.743-3.584
	c27.199,83.136,104.384,144.256,196.159,146.239c-71.424,55.872-162.111,89.536-260.288,89.536c-17.216,0-33.728-0.768-50.239-2.88
	C92.992,893.76,203.2,928,322.048,928c386.304,0,597.504-320,597.504-597.376c0-9.28-0.32-18.24-0.769-27.136
	C960.448,273.92,995.455,236.992,1024,194.496z"/>
</svg>
